<?xml version="1.0" standalone="no"?>
<!DOCTYPE svg PUBLIC "-//W3C//DTD SVG 20010904//EN"
 "http://www.w3.org/TR/2001/REC-SVG-20010904/DTD/svg10.dtd">
<svg version="1.0" xmlns="http://www.w3.org/2000/svg"
 width="164.000000pt" height="164.000000pt" viewBox="0 0 164.000000 164.000000"
 preserveAspectRatio="xMidYMid meet">
<metadata>
Created by potrace 1.14, written by Peter Selinger 2001-2017
</metadata>
<g transform="translate(0.000000,164.000000) scale(0.100000,-0.100000)"
fill="#000000" stroke="none">
<path d="M1327 1564 c-3 -4 -3 -12 0 -18 7 -10 12 -43 16 -106 2 -24 0 -25
-53 -24 -30 1 -104 4 -165 8 -95 5 -113 3 -135 -12 -28 -19 -35 -38 -21 -56
10 -12 16 -59 26 -191 4 -44 8 -83 11 -86 2 -4 -22 -5 -54 -4 -117 7 -228 15
-250 21 -29 6 -92 -54 -70 -67 7 -5 9 -9 4 -9 -5 0 -4 -6 2 -13 6 -6 13 -65
16 -130 4 -65 7 -123 9 -130 1 -8 -13 -11 -48 -10 -66 2 -170 13 -222 22 -46
9 -74 -3 -94 -40 -8 -15 -7 -24 2 -36 12 -13 16 -57 20 -203 2 -96 5 -92 -53
-85 -29 4 -71 8 -93 10 -22 3 -62 8 -89 14 -73 14 -81 10 -83 -37 -2 -37 3
-44 50 -87 68 -62 93 -87 168 -167 70 -77 91 -83 133 -39 30 31 32 31 155 8
l75 -15 28 29 c25 24 27 32 18 50 -6 11 -14 57 -16 102 l-4 82 52 52 53 51 60
-9 c110 -18 153 -17 172 3 20 22 25 48 13 63 -5 6 -12 47 -15 90 l-5 79 52 53
c33 33 58 51 68 48 9 -3 51 -7 93 -10 43 -2 82 -7 87 -10 6 -4 24 8 41 25 25
25 29 33 19 45 -7 8 -13 34 -15 57 -2 24 -7 61 -10 84 -5 39 -3 43 48 91 47
44 58 50 88 47 19 -2 68 -6 110 -9 70 -5 77 -4 98 19 17 18 21 30 16 43 -10
23 -11 28 -20 83 -4 24 -10 51 -15 60 -16 29 -266 271 -273 264z m-99 -248
c34 1 62 -1 62 -4 0 -4 -18 -24 -41 -45 l-41 -39 -44 45 c-28 29 -40 47 -32
50 7 2 18 1 23 -2 6 -4 38 -6 73 -5z m-95 -168 c-16 -18 -18 -18 -24 -1 -4 10
-8 32 -8 48 l0 30 25 -29 c24 -27 24 -29 7 -48z m-254 -173 c20 -1 44 -3 54
-4 15 -1 13 -5 -10 -31 -14 -16 -31 -30 -37 -30 -15 0 -77 65 -69 73 3 4 10 4
15 0 6 -3 26 -7 47 -8z m-84 -109 l24 -24 -22 -28 -21 -28 -7 25 c-9 30 -11
79 -4 79 3 0 17 -11 30 -24z m-445 -146 c0 -5 -2 -10 -4 -10 -3 0 -8 5 -11 10
-3 6 -1 10 4 10 6 0 11 -4 11 -10z m237 -117 c-12 -12 -27 -23 -33 -23 -10 0
-64 51 -64 61 0 3 27 1 59 -5 l60 -10 -22 -23z m-139 -41 c46 -47 46 -49 16
-82 -29 -30 -29 -30 -36 -8 -7 28 -10 108 -3 108 3 0 13 -8 23 -18z m-205
-272 c22 0 22 -12 -2 -27 -16 -10 -22 -8 -42 14 l-24 26 25 -6 c14 -4 33 -7
43 -7z"/>
</g>
</svg>
